<svg xmlns="http://www.w3.org/2000/svg" xmlns:svg="http://www.w3.org/2000/svg" id="svg2" width="1000" height="962.912" version="1.1"><defs id="defs4"><marker id="Arrow1Mend" orient="auto" refX="0" refY="0" style="overflow:visible"><path id="path3970" d="M 0,0 5,-5 -12.5,0 5,5 0,0 z" transform="matrix(-0.4,0,0,-0.4,-4,0)" style="fill-rule:evenodd;stroke:#000;stroke-width:1pt"/></marker><marker id="Arrow2Send" orient="auto" refX="0" refY="0" style="overflow:visible"><path id="path3994" d="M 8.7185878,4.0337352 -2.2072895,0.01601326 8.7185884,-4.0017078 c -1.7454984,2.3720609 -1.7354408,5.6174519 -6e-7,8.035443 z" transform="matrix(-0.3,0,0,-0.3,0.69,0)" style="fill-rule:evenodd;stroke-width:.625;stroke-linejoin:round"/></marker><marker id="Arrow1Lend" orient="auto" refX="0" refY="0" style="overflow:visible"><path id="path3964" d="M 0,0 5,-5 -12.5,0 5,5 0,0 z" transform="matrix(-0.8,0,0,-0.8,-10,0)" style="fill-rule:evenodd;stroke:#000;stroke-width:1pt"/></marker><marker id="Arrow2Send-2" orient="auto" refX="0" refY="0" style="overflow:visible"><path id="path3994-1" d="M 8.7185878,4.0337352 -2.2072895,0.01601326 8.7185884,-4.0017078 c -1.7454984,2.3720609 -1.7354408,5.6174519 -6e-7,8.035443 z" transform="matrix(-0.3,0,0,-0.3,0.69,0)" style="fill-rule:evenodd;stroke-width:.625;stroke-linejoin:round"/></marker><marker id="Arrow2Send-3" orient="auto" refX="0" refY="0" style="overflow:visible"><path id="path3994-11" d="M 8.7185878,4.0337352 -2.2072895,0.01601326 8.7185884,-4.0017078 c -1.7454984,2.3720609 -1.7354408,5.6174519 -6e-7,8.035443 z" transform="matrix(-0.3,0,0,-0.3,0.69,0)" style="fill-rule:evenodd;stroke-width:.625;stroke-linejoin:round"/></marker><marker id="Arrow2Send-0" orient="auto" refX="0" refY="0" style="overflow:visible"><path id="path3994-4" d="M 8.7185878,4.0337352 -2.2072895,0.01601326 8.7185884,-4.0017078 c -1.7454984,2.3720609 -1.7354408,5.6174519 -6e-7,8.035443 z" transform="matrix(-0.3,0,0,-0.3,0.69,0)" style="fill-rule:evenodd;stroke-width:.625;stroke-linejoin:round"/></marker><marker id="Arrow2Send-1" orient="auto" refX="0" refY="0" style="overflow:visible"><path id="path3994-0" d="M 8.7185878,4.0337352 -2.2072895,0.01601326 8.7185884,-4.0017078 c -1.7454984,2.3720609 -1.7354408,5.6174519 -6e-7,8.035443 z" transform="matrix(-0.3,0,0,-0.3,0.69,0)" style="fill-rule:evenodd;stroke-width:.625;stroke-linejoin:round"/></marker><marker id="Arrow2Send-11" orient="auto" refX="0" refY="0" style="overflow:visible"><path id="path3994-5" d="M 8.7185878,4.0337352 -2.2072895,0.01601326 8.7185884,-4.0017078 c -1.7454984,2.3720609 -1.7354408,5.6174519 -6e-7,8.035443 z" transform="matrix(-0.3,0,0,-0.3,0.69,0)" style="fill-rule:evenodd;stroke-width:.625;stroke-linejoin:round"/></marker><marker id="Arrow2Send-24" orient="auto" refX="0" refY="0" style="overflow:visible"><path id="path3994-52" d="M 8.7185878,4.0337352 -2.2072895,0.01601326 8.7185884,-4.0017078 c -1.7454984,2.3720609 -1.7354408,5.6174519 -6e-7,8.035443 z" transform="matrix(-0.3,0,0,-0.3,0.69,0)" style="fill-rule:evenodd;stroke-width:.625;stroke-linejoin:round"/></marker><marker id="Arrow2Send-9" orient="auto" refX="0" refY="0" style="overflow:visible"><path id="path3994-9" d="M 8.7185878,4.0337352 -2.2072895,0.01601326 8.7185884,-4.0017078 c -1.7454984,2.3720609 -1.7354408,5.6174519 -6e-7,8.035443 z" transform="matrix(-0.3,0,0,-0.3,0.69,0)" style="fill-rule:evenodd;stroke-width:.625;stroke-linejoin:round"/></marker><marker id="Arrow2Send-20" orient="auto" refX="0" refY="0" style="overflow:visible"><path id="path3994-6" d="M 8.7185878,4.0337352 -2.2072895,0.01601326 8.7185884,-4.0017078 c -1.7454984,2.3720609 -1.7354408,5.6174519 -6e-7,8.035443 z" transform="matrix(-0.3,0,0,-0.3,0.69,0)" style="fill-rule:evenodd;stroke-width:.625;stroke-linejoin:round"/></marker><marker id="Arrow2Send-05" orient="auto" refX="0" refY="0" style="overflow:visible"><path id="path3994-42" d="M 8.7185878,4.0337352 -2.2072895,0.01601326 8.7185884,-4.0017078 c -1.7454984,2.3720609 -1.7354408,5.6174519 -6e-7,8.035443 z" transform="matrix(-0.3,0,0,-0.3,0.69,0)" style="fill-rule:evenodd;stroke-width:.625;stroke-linejoin:round"/></marker><marker id="Arrow2Send-5" orient="auto" refX="0" refY="0" style="overflow:visible"><path id="path3994-92" d="M 8.7185878,4.0337352 -2.2072895,0.01601326 8.7185884,-4.0017078 c -1.7454984,2.3720609 -1.7354408,5.6174519 -6e-7,8.035443 z" transform="matrix(-0.3,0,0,-0.3,0.69,0)" style="fill-rule:evenodd;stroke-width:.625;stroke-linejoin:round"/></marker><marker id="Arrow2Send-6" orient="auto" refX="0" refY="0" style="overflow:visible"><path id="path3994-8" d="M 8.7185878,4.0337352 -2.2072895,0.01601326 8.7185884,-4.0017078 c -1.7454984,2.3720609 -1.7354408,5.6174519 -6e-7,8.035443 z" transform="matrix(-0.3,0,0,-0.3,0.69,0)" style="fill-rule:evenodd;stroke-width:.625;stroke-linejoin:round"/></marker><marker id="Arrow2Send-6-5" orient="auto" refX="0" refY="0" style="overflow:visible"><path id="path3994-8-8" d="M 8.7185878,4.0337352 -2.2072895,0.01601326 8.7185884,-4.0017078 c -1.7454984,2.3720609 -1.7354408,5.6174519 -6e-7,8.035443 z" transform="matrix(-0.3,0,0,-0.3,0.69,0)" style="fill-rule:evenodd;stroke-width:.625;stroke-linejoin:round"/></marker></defs><metadata id="metadata7"/><g id="layer1" transform="translate(224.84375,-41.292185)"><rect style="fill:#1a1a1a;fill-opacity:.49287798;stroke:#000;stroke-width:1.20000005;stroke-miterlimit:4;stroke-opacity:1;stroke-dasharray:none" id="rect2991" width="120" height="540" x="-224.242" y="242.184"/><rect style="fill:#1a1a1a;fill-opacity:.49287798;stroke:#000;stroke-width:1.20000005;stroke-miterlimit:4;stroke-opacity:1;stroke-dasharray:none" id="rect2993" width="120" height="100" x="-4.445" y="185.62"/><rect style="fill:#1a1a1a;fill-opacity:.49287798;stroke:#000;stroke-width:1.20000005;stroke-miterlimit:4;stroke-opacity:1;stroke-dasharray:none" id="rect2995" width="120" height="20" x="215.555" y="225.62"/><path style="fill:none;stroke:#000;stroke-width:4px;stroke-linecap:butt;stroke-linejoin:miter;stroke-opacity:1;marker-end:url(#Arrow2Send)" id="path3955" d="m 115.5552,233.62042 c 100,0 100,0 100,0"/><rect style="fill:#1a1a1a;fill-opacity:.49287798;stroke:#000;stroke-width:1.20000005;stroke-miterlimit:4;stroke-opacity:1;stroke-dasharray:none" id="rect2993-9" width="120" height="100" x="-4.445" y="328.233"/><rect style="fill:#1a1a1a;fill-opacity:.49287798;stroke:#000;stroke-width:1.20000005;stroke-miterlimit:4;stroke-opacity:1;stroke-dasharray:none" id="rect2995-9" width="120" height="20" x="215.555" y="368.233"/><path style="fill:none;stroke:#000;stroke-width:4px;stroke-linecap:butt;stroke-linejoin:miter;stroke-opacity:1;marker-end:url(#Arrow2Send)" id="path3955-8" d="m 115.5552,376.23246 c 100,0 100,0 100,0"/><rect style="fill:#1a1a1a;fill-opacity:.49287798;stroke:#000;stroke-width:1.20000005;stroke-miterlimit:4;stroke-opacity:1;stroke-dasharray:none" id="rect2993-4" width="120" height="100" x="-4.841" y="464.813"/><rect style="fill:#1a1a1a;fill-opacity:.49287798;stroke:#000;stroke-width:1.20000005;stroke-miterlimit:4;stroke-opacity:1;stroke-dasharray:none" id="rect2995-8" width="120" height="20" x="215.159" y="504.813"/><path style="fill:none;stroke:#000;stroke-width:4px;stroke-linecap:butt;stroke-linejoin:miter;stroke-opacity:1;marker-end:url(#Arrow2Send)" id="path3955-87" d="m 115.15932,512.8133 c 100,0 100,0 100,0"/><rect style="fill:#1a1a1a;fill-opacity:.49287798;stroke:#000;stroke-width:1.20000005;stroke-miterlimit:4;stroke-opacity:1;stroke-dasharray:none" id="rect2993-1" width="120" height="100" x="-4.445" y="607.438"/><rect style="fill:#1a1a1a;fill-opacity:.49287798;stroke:#000;stroke-width:1.20000005;stroke-miterlimit:4;stroke-opacity:1;stroke-dasharray:none" id="rect2995-7" width="120" height="20" x="215.555" y="647.438"/><path style="fill:none;stroke:#000;stroke-width:4px;stroke-linecap:butt;stroke-linejoin:miter;stroke-opacity:1;marker-end:url(#Arrow2Send)" id="path3955-4" d="m 115.5552,655.43766 c 100,0 100,0 100,0"/><rect style="fill:#1a1a1a;fill-opacity:.49287798;stroke:#000;stroke-width:1.20000005;stroke-miterlimit:4;stroke-opacity:1;stroke-dasharray:none" id="rect2993-2" width="120" height="100" x="-2.826" y="746.428"/><rect style="fill:#1a1a1a;fill-opacity:.49287798;stroke:#000;stroke-width:1.20000005;stroke-miterlimit:4;stroke-opacity:1;stroke-dasharray:none" id="rect2995-2" width="120" height="20" x="217.174" y="786.428"/><path style="fill:none;stroke:#000;stroke-width:4px;stroke-linecap:butt;stroke-linejoin:miter;stroke-opacity:1;marker-end:url(#Arrow2Send)" id="path3955-0" d="m 117.17452,794.42754 c 100,0 100,0 100,0"/><path style="fill:none;stroke:#000;stroke-width:4px;stroke-linecap:butt;stroke-linejoin:miter;stroke-opacity:1;marker-end:url(#Arrow2Send)" id="path3955-9" d="M -108.45568,280.40202 C -8.4556827,252.18778 -8.4556827,252.18778 -8.4556827,252.18778"/><path style="fill:none;stroke:#000;stroke-width:4px;stroke-linecap:butt;stroke-linejoin:miter;stroke-opacity:1;marker-end:url(#Arrow2Send)" id="path3955-875" d="M -103.73052,381.85674 C -3.7305227,368.6901 -3.7305227,368.6901 -3.7305227,368.6901"/><path style="fill:none;stroke:#000;stroke-width:4px;stroke-linecap:butt;stroke-linejoin:miter;stroke-opacity:1;marker-end:url(#Arrow2Send)" id="path3955-3" d="m -104.4448,513.62042 c 99.9999973,0 99.9999973,0 99.9999973,0"/><path style="fill:none;stroke:#000;stroke-width:4px;stroke-linecap:butt;stroke-linejoin:miter;stroke-opacity:1;marker-end:url(#Arrow2Send)" id="path3955-7" d="m -104.4448,644.86762 c 99.9999973,16.92856 99.9999973,16.92856 99.9999973,16.92856"/><path style="fill:none;stroke:#000;stroke-width:4px;stroke-linecap:butt;stroke-linejoin:miter;stroke-opacity:1;marker-end:url(#Arrow2Send)" id="path3955-97" d="m -104.4448,746.0599 c 99.9999973,30.0952 99.9999973,30.0952 99.9999973,30.0952"/><rect style="fill:#1a1a1a;fill-opacity:.49287798;stroke:#000;stroke-width:1.20000005;stroke-miterlimit:4;stroke-opacity:1;stroke-dasharray:none" id="rect2995-95" width="120" height="20" x="435.912" y="461.692"/><rect style="fill:#1a1a1a;fill-opacity:.49287798;stroke:#000;stroke-width:1.20000005;stroke-miterlimit:4;stroke-opacity:1;stroke-dasharray:none" id="rect2995-0" width="120" height="20" x="435.555" y="485.62"/><rect style="fill:#1a1a1a;fill-opacity:.49287798;stroke:#000;stroke-width:1.20000005;stroke-miterlimit:4;stroke-opacity:1;stroke-dasharray:none" id="rect2995-28" width="120" height="20" x="435.198" y="509.692"/><rect style="fill:#1a1a1a;fill-opacity:.49287798;stroke:#000;stroke-width:1.20000005;stroke-miterlimit:4;stroke-opacity:1;stroke-dasharray:none" id="rect2995-4" width="120" height="20" x="435.484" y="533.263"/><rect style="fill:#1a1a1a;fill-opacity:.49287798;stroke:#000;stroke-width:1.20000005;stroke-miterlimit:4;stroke-opacity:1;stroke-dasharray:none" id="rect2995-41" width="120" height="20" x="435.555" y="556.978"/><path style="fill:none;stroke:#000;stroke-width:4px;stroke-linecap:butt;stroke-linejoin:miter;stroke-opacity:1;marker-end:url(#Arrow2Send)" id="path3955-87-8" d="m 335.15932,516.8133 c 100,0 100,0 100,0"/><path style="fill:none;stroke:#000;stroke-width:4px;stroke-linecap:butt;stroke-linejoin:miter;stroke-opacity:1;marker-end:url(#Arrow2Send-5)" id="path4800" d="m 334.54504,376.20418 100,120"/><path style="fill:none;stroke:#000;stroke-width:4px;stroke-linecap:butt;stroke-linejoin:miter;stroke-opacity:1;marker-end:url(#Arrow2Send-5)" id="path5006" d="m 334.54504,236.20418 100,236"/><path style="fill:none;stroke:#000;stroke-width:4px;stroke-linecap:butt;stroke-linejoin:miter;stroke-opacity:1;marker-end:url(#Arrow2Send-5)" id="path5416" d="m 334.54504,656.20418 100,-112"/><path style="fill:none;stroke:#000;stroke-width:4px;stroke-linecap:butt;stroke-linejoin:miter;stroke-opacity:1;marker-end:url(#Arrow2Send-5)" id="path5622" d="m 334.54504,796.20418 100,-228"/><rect style="fill:#1a1a1a;fill-opacity:.49287798;stroke:#000;stroke-width:1.20000005;stroke-miterlimit:4;stroke-opacity:1;stroke-dasharray:none" id="rect5828" width="119.643" height="53.071" x="654.902" y="492.919"/><path style="fill:none;stroke:#000;stroke-width:4px;stroke-linecap:butt;stroke-linejoin:miter;stroke-opacity:1;marker-end:url(#Arrow2Send)" id="path3955-87-8-2" d="m 555.15932,519.02758 c 100,0 100,0 100,0"/><text style="font-size:40px;font-style:normal;font-variant:normal;font-weight:400;font-stretch:normal;text-align:center;line-height:125%;letter-spacing:0;word-spacing:0;text-anchor:middle;fill:#000;fill-opacity:1;stroke:none;font-family:Latin Modern Roman;-inkscape-font-specification:Latin Modern Roman" id="text5854" x="-165.455" y="64.204" xml:space="preserve"><tspan id="tspan5856" x="-165.455" y="64.204" style="font-size:32px">Entire</tspan><tspan id="tspan5858" x="-165.455" y="104.204" style="font-size:32px">Dataset</tspan></text><text style="font-size:40px;font-style:normal;font-variant:normal;font-weight:400;font-stretch:normal;text-align:center;line-height:125%;letter-spacing:0;word-spacing:0;text-anchor:middle;fill:#000;fill-opacity:1;stroke:none;font-family:Latin Modern Roman;-inkscape-font-specification:Latin Modern Roman" id="text5854-4" x="54.545" y="64.204" xml:space="preserve"><tspan id="tspan5858-7" x="54.545" y="64.204" style="font-size:32px">In-memory</tspan><tspan id="tspan5965" x="54.545" y="104.204" style="font-size:32px">chunks</tspan></text><text style="font-size:40px;font-style:normal;font-variant:normal;font-weight:400;font-stretch:normal;text-align:center;line-height:125%;letter-spacing:0;word-spacing:0;text-anchor:middle;fill:#000;fill-opacity:1;stroke:none;font-family:Latin Modern Roman;-inkscape-font-specification:Latin Modern Roman" id="text5854-5" x="274.545" y="64.204" xml:space="preserve"><tspan id="tspan5858-3" x="274.545" y="64.204" style="font-size:32px">Evaluated</tspan><tspan id="tspan5969" x="274.545" y="104.204" style="font-size:32px">chunks</tspan></text><text style="font-size:40px;font-style:normal;font-variant:normal;font-weight:400;font-stretch:normal;text-align:center;line-height:125%;letter-spacing:0;word-spacing:0;text-anchor:middle;fill:#000;fill-opacity:1;stroke:none;font-family:Latin Modern Roman;-inkscape-font-specification:Latin Modern Roman" id="text5854-7" x="494.545" y="64.204" xml:space="preserve"><tspan id="tspan5858-5" x="494.545" y="64.204" style="font-size:32px">Aggregated</tspan><tspan id="tspan5973" x="494.545" y="104.204" style="font-size:32px">results</tspan></text><text style="font-size:40px;font-style:normal;font-variant:normal;font-weight:400;font-stretch:normal;text-align:center;line-height:125%;letter-spacing:0;word-spacing:0;text-anchor:middle;fill:#000;fill-opacity:1;stroke:none;font-family:Latin Modern Roman;-inkscape-font-specification:Latin Modern Roman" id="text5854-53" x="714.545" y="64.204" xml:space="preserve"><tspan id="tspan5858-9" x="714.545" y="64.204" style="font-size:32px">Entire</tspan><tspan id="tspan5977" x="714.545" y="104.204" style="font-size:32px">result</tspan></text><path style="fill:green;stroke:#00f;stroke-width:8;stroke-linecap:butt;stroke-linejoin:miter;stroke-miterlimit:4;stroke-opacity:1;stroke-dasharray:none;marker-end:url(#Arrow1Mend)" id="path5979" d="m -165.45496,984.20418 c 900,0 900,0 900,0"/><text style="font-size:40px;font-style:normal;font-variant:normal;font-weight:400;font-stretch:normal;line-height:125%;letter-spacing:0;word-spacing:0;fill:#000;fill-opacity:1;stroke:none;font-family:Courier 10 Pitch;-inkscape-font-specification:Courier 10 Pitch" id="text6633" x="-32.081" y="948.562" xml:space="preserve"><tspan id="tspan6635" x="-32.081" y="948.562">result = x[x &gt; 0].mean()</tspan></text><text style="font-size:16px;font-style:normal;font-variant:normal;font-weight:400;font-stretch:normal;line-height:125%;letter-spacing:0;word-spacing:0;fill:#000;fill-opacity:1;stroke:none;font-family:Latin Modern Roman;-inkscape-font-specification:Latin Modern Roman" id="text6637" x="163.295" y="193.454" xml:space="preserve"><tspan id="tspan6639" x="163.295" y="193.454" style="font-size:24px;font-style:normal;font-variant:normal;font-weight:400;font-stretch:normal;text-align:center;text-anchor:middle;font-family:Courier 10 Pitch;-inkscape-font-specification:Courier 10 Pitch">numpy</tspan><tspan id="tspan6641" x="163.295" y="223.454" style="font-size:24px;font-style:normal;font-variant:normal;font-weight:400;font-stretch:normal;text-align:center;text-anchor:middle;font-family:Courier 10 Pitch;-inkscape-font-specification:Courier 10 Pitch">pandas</tspan></text><text style="font-size:16px;font-style:normal;font-variant:normal;font-weight:400;font-stretch:normal;line-height:125%;letter-spacing:0;word-spacing:0;fill:#000;fill-opacity:1;stroke:none;font-family:Latin Modern Roman;-inkscape-font-specification:Latin Modern Roman" id="text6637-1" x="163.795" y="336.454" xml:space="preserve"><tspan id="tspan6639-8" x="163.795" y="336.454" style="font-size:24px;font-style:normal;font-variant:normal;font-weight:400;font-stretch:normal;text-align:center;text-anchor:middle;font-family:Courier 10 Pitch;-inkscape-font-specification:Courier 10 Pitch">numpy</tspan><tspan id="tspan6641-1" x="163.795" y="366.454" style="font-size:24px;font-style:normal;font-variant:normal;font-weight:400;font-stretch:normal;text-align:center;text-anchor:middle;font-family:Courier 10 Pitch;-inkscape-font-specification:Courier 10 Pitch">pandas</tspan></text><text style="font-size:16px;font-style:normal;font-variant:normal;font-weight:400;font-stretch:normal;line-height:125%;letter-spacing:0;word-spacing:0;fill:#000;fill-opacity:1;stroke:none;font-family:Latin Modern Roman;-inkscape-font-specification:Latin Modern Roman" id="text6637-2" x="163.545" y="472.454" xml:space="preserve"><tspan id="tspan6639-85" x="163.545" y="472.454" style="font-size:24px;font-style:normal;font-variant:normal;font-weight:400;font-stretch:normal;text-align:center;text-anchor:middle;font-family:Courier 10 Pitch;-inkscape-font-specification:Courier 10 Pitch">numpy</tspan><tspan id="tspan6641-17" x="163.545" y="502.454" style="font-size:24px;font-style:normal;font-variant:normal;font-weight:400;font-stretch:normal;text-align:center;text-anchor:middle;font-family:Courier 10 Pitch;-inkscape-font-specification:Courier 10 Pitch">pandas</tspan></text><text style="font-size:16px;font-style:normal;font-variant:normal;font-weight:400;font-stretch:normal;line-height:125%;letter-spacing:0;word-spacing:0;fill:#000;fill-opacity:1;stroke:none;font-family:Latin Modern Roman;-inkscape-font-specification:Latin Modern Roman" id="text6637-14" x="163.545" y="614.204" xml:space="preserve"><tspan id="tspan6639-2" x="163.545" y="614.204" style="font-size:24px;font-style:normal;font-variant:normal;font-weight:400;font-stretch:normal;text-align:center;text-anchor:middle;font-family:Courier 10 Pitch;-inkscape-font-specification:Courier 10 Pitch">numpy</tspan><tspan id="tspan6641-12" x="163.545" y="644.204" style="font-size:24px;font-style:normal;font-variant:normal;font-weight:400;font-stretch:normal;text-align:center;text-anchor:middle;font-family:Courier 10 Pitch;-inkscape-font-specification:Courier 10 Pitch">pandas</tspan></text><text style="font-size:16px;font-style:normal;font-variant:normal;font-weight:400;font-stretch:normal;line-height:125%;letter-spacing:0;word-spacing:0;fill:#000;fill-opacity:1;stroke:none;font-family:Latin Modern Roman;-inkscape-font-specification:Latin Modern Roman" id="text6637-146" x="164.224" y="752.932" xml:space="preserve"><tspan id="tspan6639-0" x="164.224" y="752.932" style="font-size:24px;font-style:normal;font-variant:normal;font-weight:400;font-stretch:normal;text-align:center;text-anchor:middle;font-family:Courier 10 Pitch;-inkscape-font-specification:Courier 10 Pitch">numpy</tspan><tspan id="tspan6641-8" x="164.224" y="782.932" style="font-size:24px;font-style:normal;font-variant:normal;font-weight:400;font-stretch:normal;text-align:center;text-anchor:middle;font-family:Courier 10 Pitch;-inkscape-font-specification:Courier 10 Pitch">pandas</tspan></text><text style="font-size:16px;font-style:normal;font-variant:normal;font-weight:400;font-stretch:normal;line-height:125%;letter-spacing:0;word-spacing:0;fill:#000;fill-opacity:1;stroke:none;font-family:Latin Modern Roman;-inkscape-font-specification:Latin Modern Roman" id="text6637-8" x="602.165" y="479.46" xml:space="preserve"><tspan id="tspan6639-5" x="602.165" y="479.46" style="font-size:24px;font-style:normal;font-variant:normal;font-weight:400;font-stretch:normal;text-align:center;text-anchor:middle;font-family:Courier 10 Pitch;-inkscape-font-specification:Courier 10 Pitch">numpy</tspan><tspan id="tspan6641-13" x="602.165" y="509.46" style="font-size:24px;font-style:normal;font-variant:normal;font-weight:400;font-stretch:normal;text-align:center;text-anchor:middle;font-family:Courier 10 Pitch;-inkscape-font-specification:Courier 10 Pitch">pandas</tspan></text><rect style="fill:#000;fill-opacity:.019943;stroke:#00f;stroke-width:4.01160479;stroke-miterlimit:4;stroke-opacity:1;stroke-dasharray:none" id="rect6711" width="739.622" height="750.936" x="-91.472" y="121.253"/></g></svg>